<?xml version="1.0" encoding="UTF-8"?>
<svg version="1.1" xmlns="http://www.w3.org/2000/svg" width="831" height="164">
<path d="M0 0 C7.753716 7.753716 8.23563963 19.60654125 8.27807617 29.99267578 C8.26881104 31.02634277 8.2595459 32.06000977 8.25 33.125 C8.24395752 34.2166748 8.23791504 35.30834961 8.23168945 36.43310547 C7.94773678 59.81359663 3.47070757 83.54105499 -6 105 C-6.29841797 105.67740234 -6.59683594 106.35480469 -6.90429688 107.05273438 C-8.62382686 110.9505557 -10.35485209 114.84300128 -12.09765625 118.73046875 C-12.57271606 119.81618164 -12.57271606 119.81618164 -13.05737305 120.92382812 C-13.66188679 122.25529275 -14.30647986 123.56967963 -14.99926758 124.85742188 C-16.74483936 128.25093096 -17.04517428 129.80053483 -16.19140625 133.5703125 C-12.32077858 142.73997301 -12.32077858 142.73997301 -5 149 C-0.33377928 149.81911961 3.76268613 149.11865693 8 147 C8 146.34 8 145.68 8 145 C8.763125 144.2575 9.52625 143.515 10.3125 142.75 C13.19108416 139.80447202 14.78698405 137.94230185 16 134 C15.52625368 131.96196734 15.52625368 131.96196734 14.66650391 129.84301758 C9.54909429 115.45155427 9.4926726 99.91107304 9.625 84.8125 C9.63148056 83.40458694 9.63148056 83.40458694 9.63809204 81.9682312 C9.71603992 67.49560067 10.18854187 53.23946445 13 39 C13.17692383 38.1032959 13.35384766 37.2065918 13.53613281 36.28271484 C16.12619966 23.73274498 19.39688428 10.13467105 29 1 C33.75572034 -1.68049692 36.70378904 -2.42093465 42 -1 C42 -0.34 42 0.32 42 1 C42.66 1 43.32 1 44 1 C50.24911143 10.79027457 50.32256849 20.59092655 50.26074219 31.86352539 C50.25010331 34.16514942 50.26063853 36.46597907 50.2734375 38.76757812 C50.2826256 48.00671239 49.63389853 56.88082215 48 66 C47.85401367 66.81944092 47.70802734 67.63888184 47.55761719 68.4831543 C47.15774003 70.58204113 46.71865125 72.66546528 46.25 74.75 C46.08298584 75.49531982 45.91597168 76.24063965 45.74389648 77.00854492 C43.75165333 85.53563138 40.96116897 93.76771274 38 102 C37.5875 103.16402344 37.175 104.32804687 36.75 105.52734375 C35.08837669 110.03668333 33.41936345 114.36936326 30.9921875 118.5234375 C27.1105417 124.8995663 27.1105417 124.8995663 26.3046875 132.1171875 C27.2996378 134.96320812 28.46647354 137.4081243 30 140 C30.34417969 140.6290625 30.68835938 141.258125 31.04296875 141.90625 C32.87736855 144.96108722 34.8081947 147.40409735 38 149 C42.23589436 149.70598239 44.51975633 149.9573315 48.15625 147.60546875 C53.44896616 143.07308682 57.54393048 138.04812166 61 132 C61.66 132.33 62.32 132.66 63 133 C61.46197215 138.84450583 58.5439162 144.12711522 55 149 C54.34 149 53.68 149 53 149 C52.79375 149.5775 52.5875 150.155 52.375 150.75 C50.44321254 153.91110676 48.42310826 155.6965857 45 157 C39.16269405 157.96741868 33.72649079 158.07629498 28.6875 154.6875 C24.03502291 150.63974739 21.02297093 145.3090927 18 140 C17.27296875 141.08667969 17.27296875 141.08667969 16.53125 142.1953125 C6.87959801 156.11596441 6.87959801 156.11596441 -0.73828125 157.49609375 C-6.65083951 157.76011868 -10.505179 157.08620091 -15 153 C-18.60689945 149.19834356 -21.88688128 145.21352625 -25 141 C-25.46148438 141.71285156 -25.92296875 142.42570313 -26.3984375 143.16015625 C-32.17062065 151.63591135 -39.0530216 158.66287291 -49.18359375 161.5625 C-53.14536193 162.1779203 -57.05692645 162.3598127 -61.0625 162.4375 C-61.81853516 162.45997803 -62.57457031 162.48245605 -63.35351562 162.50561523 C-70.43982616 162.4755493 -75.50553922 160.11486892 -80.875 155.5625 C-82.95879796 153.04968482 -83.8790898 151.02443789 -85 148 C-85.54527344 148.60328125 -86.09054687 149.2065625 -86.65234375 149.828125 C-91.96793296 155.46174091 -97.11410338 160.6034325 -105.203125 161.1484375 C-108.50414925 160.9161432 -110.71419824 160.21059077 -113.375 158.25 C-118.24229607 151.51066698 -117.7066213 143.83060939 -116.546875 135.90234375 C-116.18607981 133.90508469 -115.81902402 131.90894511 -115.4453125 129.9140625 C-114.78134884 125.56917752 -114.87094754 121.38778376 -115 117 C-120.61 116.67 -126.22 116.34 -132 116 C-132.061875 117.36125 -132.12375 118.7225 -132.1875 120.125 C-133.77518326 134.76467679 -140.62573161 146.40314741 -151.3984375 156.17578125 C-156.19149385 159.69909811 -160.99843955 161.50207607 -167 161 C-171.26162669 159.33240695 -172.98034835 157.0393033 -175 153 C-177.551762 145.34471401 -175.70171481 136.78403005 -174.4375 129 C-174.13879357 127.14674902 -173.84553507 125.292609 -173.55859375 123.4375 C-173.42767334 122.63183594 -173.29675293 121.82617188 -173.16186523 120.99609375 C-172.82060963 118.92707814 -172.82060963 118.92707814 -174 117 C-179.61 116.67 -185.22 116.34 -191 116 C-191 118.31 -191 120.62 -191 123 C-193.73985185 136.10293858 -200.48945487 149.22213658 -211.875 156.8125 C-213.23198112 157.57467535 -214.60740809 158.30502029 -216 159 C-216.63035156 159.3196875 -217.26070312 159.639375 -217.91015625 159.96875 C-226.39885434 163.50161857 -238.68950996 163.80781396 -247.25 160.375 C-252.25276573 157.65589522 -254.88210002 153.67684996 -258 149 C-258.33 149.66 -258.66 150.32 -259 151 C-259.66 151 -260.32 151 -261 151 C-261 151.66 -261 152.32 -261 153 C-265.75763608 157.00643038 -270.78178637 158.69245311 -277 159 C-282.57561188 158.06911523 -286.5603324 155.49067714 -290 151 C-296.49455859 138.48609443 -296.29559923 125.19543168 -296.20581055 111.45776367 C-296.18756428 108.57266348 -296.18530143 105.68788632 -296.18554688 102.80273438 C-296.16717554 93.48846763 -296.05284791 84.26481933 -295 75 C-295.64960693 74.9906543 -296.29921387 74.98130859 -296.96850586 74.97167969 C-299.95889339 74.91744917 -302.94780375 74.8339085 -305.9375 74.75 C-307.46987305 74.72873047 -307.46987305 74.72873047 -309.03320312 74.70703125 C-315.89211125 74.48789681 -320.9706442 73.25236854 -327 70 C-327.70503662 69.66709961 -328.41007324 69.33419922 -329.13647461 68.99121094 C-331.54085371 67.71231939 -332.6478615 66.34845108 -334 64 C-333.67 63.01 -333.34 62.02 -333 61 C-332.05125 61.45375 -331.1025 61.9075 -330.125 62.375 C-321.7394845 65.93299761 -312.87228251 66.35027382 -303.875 66.625 C-302.823125 66.66367188 -301.77125 66.70234375 -300.6875 66.7421875 C-298.12516244 66.83536341 -295.56281221 66.92117382 -293 67 C-292.95391602 66.44022461 -292.90783203 65.88044922 -292.86035156 65.30371094 C-292.35844988 60.00585988 -291.40807405 55.30817527 -289.75 50.25 C-289.35296875 48.99703125 -288.9559375 47.7440625 -288.546875 46.453125 C-286.86934137 42.7083277 -285.15315284 40.59962131 -282 38 C-279.375 37.875 -279.375 37.875 -277 39 C-275.25 41.4375 -275.25 41.4375 -274 44 C-273.67 44.66 -273.34 45.32 -273 46 C-272.91627341 47.52148326 -272.89269973 49.04655778 -272.90234375 50.5703125 C-272.90556641 51.46621094 -272.90878906 52.36210938 -272.91210938 53.28515625 C-272.92467773 54.69087891 -272.92467773 54.69087891 -272.9375 56.125 C-272.94201172 57.06988281 -272.94652344 58.01476563 -272.95117188 58.98828125 C-272.96297643 61.32558387 -272.97944241 63.66276061 -273 66 C-271.88431641 65.89171875 -271.88431641 65.89171875 -270.74609375 65.78125 C-259.16599877 64.79687357 -247.61308179 64.90244891 -236 65 C-235.375 66.8125 -235.375 66.8125 -235 69 C-237 72 -237 72 -239.546875 72.52416992 C-240.60390625 72.59224854 -241.6609375 72.66032715 -242.75 72.73046875 C-243.91660156 72.81103516 -245.08320312 72.89160156 -246.28515625 72.97460938 C-247.51105469 73.04486328 -248.73695313 73.11511719 -250 73.1875 C-251.19496094 73.26935547 -252.38992188 73.35121094 -253.62109375 73.43554688 C-260.42231514 73.87878091 -267.18498223 74.11482677 -274 74 C-274.07476562 74.92296875 -274.14953125 75.8459375 -274.2265625 76.796875 C-275.60870789 90.50992537 -279.34833554 103.36950563 -284.375 116.1875 C-287.82471547 125.42986269 -286.14440792 136.0972281 -282.5 145.125 C-281.31101699 148.08870808 -281.31101699 148.08870808 -279 149 C-273.10491152 149.78402692 -268.37912925 149.85138144 -263.5 146.1875 C-262.30244656 145.15993826 -261.13303399 144.09829474 -260 143 C-259.46761719 142.50757813 -258.93523437 142.01515625 -258.38671875 141.5078125 C-256.73555649 139.84817106 -256.73555649 139.84817106 -255.3125 136.6875 C-252.89257553 132.22724705 -249.15828887 129.75537102 -245 127 C-245.63808594 126.44570312 -246.27617188 125.89140625 -246.93359375 125.3203125 C-248.17302734 124.23363281 -248.17302734 124.23363281 -249.4375 123.125 C-250.26121094 122.40570313 -251.08492187 121.68640625 -251.93359375 120.9453125 C-254.58805462 118.44640605 -254.93733941 117.52217161 -255.375 113.875 C-254.88787439 108.84136869 -253.39174229 105.73639971 -250 102 C-242.1876368 96.27846818 -234.47426235 95.41883983 -225 96 C-222.53891424 96.48713401 -220.37104109 97.15696317 -218 98 C-217.875 100.875 -217.875 100.875 -218 104 C-218.66 104.66 -219.32 105.32 -220 106 C-222.00823996 105.720566 -224.00698731 105.37284251 -226 105 C-229.04148927 104.77691992 -232.07624746 104.72480121 -235.125 104.6875 C-235.92292969 104.65849609 -236.72085938 104.62949219 -237.54296875 104.59960938 C-242.36671627 104.54388322 -242.36671627 104.54388322 -246.53125 106.83203125 C-248.22848914 108.9840986 -248.22848914 108.9840986 -248.375 112 C-246.7523575 115.54031091 -245.97493401 115.82401581 -242.5 117.3125 C-237.65684926 118.99434341 -233.10319004 119.67076193 -228 120 C-227.67 121.32 -227.34 122.64 -227 124 C-227.71285156 124.30292969 -228.42570313 124.60585937 -229.16015625 124.91796875 C-239.60730039 129.26096237 -239.60730039 129.26096237 -247 137.4375 C-248.08824878 141.31438628 -248.31865622 143.20886337 -247 147 C-244.01108905 150.9852146 -241.15493753 152.81504514 -236.23046875 153.78515625 C-226.03487207 154.76721898 -215.82733065 151.95490004 -207.7890625 145.6953125 C-198.70062094 137.08312115 -196.31777639 125.01733392 -195 113 C-195.99 112.67 -196.98 112.34 -198 112 C-200.82726358 107.60203443 -201.57675542 104.19079878 -201 99 C-199.5 96.5625 -199.5 96.5625 -198 95 C-195.6875 95.0625 -195.6875 95.0625 -193 96 C-190.83114896 99.96376224 -190 102.46077616 -190 107 C-188.75863281 106.95359375 -187.51726562 106.9071875 -186.23828125 106.859375 C-184.59637829 106.82184579 -182.95444923 106.78544686 -181.3125 106.75 C-180.49587891 106.71648437 -179.67925781 106.68296875 -178.83789062 106.6484375 C-174.88385118 106.58440447 -172.55856606 106.69009545 -169.04296875 108.640625 C-166.1724879 111.95567363 -164.95369988 114.66722753 -165.04199219 119.11572266 C-165.25104055 121.52793677 -165.54507357 123.91389692 -165.875 126.3125 C-167.45655204 138.1914966 -167.45655204 138.1914966 -166 150 C-160.59728749 151.40070324 -157.72378049 151.28330439 -152.8125 148.5 C-143.51283101 142.25756164 -139.66659544 132.66826571 -137.32421875 121.890625 C-136.71780634 117.35784537 -136.40331921 114.95468927 -138.875 111 C-139.57625 110.34 -140.2775 109.68 -141 109 C-142.25131795 105.24604616 -142.45720519 101.92706604 -142 98 C-140.75 95.9375 -140.75 95.9375 -139 95 C-136.28128291 95.08495991 -135.23712565 95.77981189 -133.25 97.625 C-131.57194138 100.81331139 -131.91714156 103.44537279 -132 107 C-130.68644531 106.94199219 -129.37289062 106.88398437 -128.01953125 106.82421875 C-126.28388977 106.77730952 -124.54820977 106.73181061 -122.8125 106.6875 C-121.94818359 106.64560547 -121.08386719 106.60371094 -120.19335938 106.56054688 C-115.65251662 106.47355755 -113.66366813 106.49268902 -109.94921875 109.33203125 C-107.38742686 112.83845181 -106.86295111 115.16804544 -107.0859375 119.38671875 C-107.15167969 120.6715918 -107.15167969 120.6715918 -107.21875 121.98242188 C-107.2703125 122.87509766 -107.321875 123.76777344 -107.375 124.6875 C-107.44074219 125.99750977 -107.44074219 125.99750977 -107.5078125 127.33398438 C-107.72612122 131.39392016 -108.02011001 135.40433313 -108.5703125 139.43359375 C-109.0497213 143.41268675 -108.99436741 145.50985703 -107 149 C-103.79142953 150.66845664 -101.58665831 151.42621998 -98.0078125 150.46484375 C-91.17741343 147.39515078 -86.21650335 142.29111328 -82.5 135.875 C-80.03849091 131.64350946 -77.12047473 129.58539591 -73 127 C-73.66 126.54625 -74.32 126.0925 -75 125.625 C-75.66 125.08875 -76.32 124.5525 -77 124 C-77 123.34 -77 122.68 -77 122 C-77.99 121.67 -78.98 121.34 -80 121 C-82.48186657 117.27720015 -82.531919 114.3126356 -82 110 C-80.05659473 104.94714631 -77.45639639 101.30900071 -72.625 98.734375 C-64.43478824 95.66304559 -56.86281789 94.76369037 -48.3125 96.9375 C-46 98 -46 98 -45 99 C-44.8125 101.4375 -44.8125 101.4375 -45 104 C-45.66 104.66 -46.32 105.32 -47 106 C-49.00781864 105.71755456 -51.00657999 105.3706586 -53 105 C-56.04173014 104.80012694 -59.07741057 104.76988639 -62.125 104.75 C-62.92292969 104.729375 -63.72085937 104.70875 -64.54296875 104.6875 C-68.0533268 104.66405854 -70.37410704 104.66858773 -73.515625 106.33203125 C-75.25531501 108.0099274 -75.25531501 108.0099274 -75.625 110.9375 C-75.25454675 114.12666344 -75.25454675 114.12666344 -72.875 116.25 C-67.61421229 119.31453653 -60.93012673 119.38261694 -55 120 C-54.67 120.99 -54.34 121.98 -54 123 C-55.02480469 123.50789063 -56.04960938 124.01578125 -57.10546875 124.5390625 C-58.46650961 125.23366266 -59.82716655 125.92901544 -61.1875 126.625 C-61.86103516 126.95628906 -62.53457031 127.28757813 -63.22851562 127.62890625 C-68.48302673 130.34587297 -72.64627629 133.40091724 -74.8125 139.16015625 C-75.12737127 142.35478767 -75.0777535 144.78131828 -74 147.8125 C-69.95637395 152.23521599 -64.39836395 153.59889311 -58.58203125 154.0546875 C-48.52932759 153.84177093 -40.50091854 150.57504488 -33 144 C-32.31035156 143.47148437 -31.62070312 142.94296875 -30.91015625 142.3984375 C-28.68428757 140.26511041 -27.81211343 138.99958027 -27 136 C-27.28228294 131.48462052 -28.49920502 127.16613898 -29.71875 122.828125 C-33.1473003 110.2947969 -33.36304875 98.09169561 -33.3125 85.1875 C-33.30976578 83.75044708 -33.30976578 83.75044708 -33.30697632 82.28436279 C-33.26114883 68.00320299 -32.82854768 54.04152342 -30 40 C-29.82307617 39.08653809 -29.64615234 38.17307617 -29.46386719 37.23193359 C-26.89523819 24.30671667 -23.92311753 10.43906302 -14 1 C-8.71887933 -2.12955299 -5.63137809 -2.550058 0 0 Z M-12 5 C-16.81840784 12.80914374 -19.23640151 20.70144222 -20.5625 29.75 C-20.68471924 30.56871582 -20.80693848 31.38743164 -20.93286133 32.23095703 C-21.30668683 34.81852657 -21.65850625 37.40797439 -22 40 C-22.10731445 40.80985352 -22.21462891 41.61970703 -22.32519531 42.45410156 C-25.37626077 66.54298982 -27.77717046 96.66848861 -20 120 C-16.9784969 119.35060384 -16.9784969 119.35060384 -16.02026367 117.3996582 C-15.73900635 116.70702881 -15.45774902 116.01439941 -15.16796875 115.30078125 C-14.84723389 114.51477539 -14.52649902 113.72876953 -14.19604492 112.91894531 C-13.8632251 112.05881836 -13.53040527 111.19869141 -13.1875 110.3125 C-12.83856689 109.42272461 -12.48963379 108.53294922 -12.13012695 107.61621094 C-9.63961583 101.08495516 -7.5371008 94.48932262 -5.6875 87.75 C-5.34271606 86.4957019 -5.34271606 86.4957019 -4.9909668 85.21606445 C-4.27579372 82.48709389 -3.62663954 79.75068881 -3 77 C-2.72857178 75.82880615 -2.45714355 74.6576123 -2.17749023 73.45092773 C-0.09338405 63.58977264 0.43851442 54.11737439 0.33618164 44.05200195 C0.31228794 41.54020712 0.31568938 39.02946032 0.32226562 36.51757812 C0.31669524 34.88801462 0.3095894 33.25845547 0.30078125 31.62890625 C0.30169266 30.89434708 0.30260406 30.1597879 0.30354309 29.40296936 C0.19449506 21.29798723 -1.02183419 10.97816581 -7 5 C-9.58354218 4.83312552 -9.58354218 4.83312552 -12 5 Z M27.90625 9.03515625 C14.39219666 38.3350219 14.46398681 86.95147918 22 118 C22.62712775 119.3523805 23.28394527 120.69252616 24 122 C34.10986738 100.53266458 43.06458338 75.82170228 43.203125 51.77734375 C43.21167511 50.60444542 43.21167511 50.60444542 43.22039795 49.40785217 C43.22980886 47.75637141 43.23636631 46.10487219 43.24023438 44.45336914 C43.2498769 41.96921484 43.28091066 39.48591154 43.3125 37.00195312 C43.69549732 19.75596931 43.69549732 19.75596931 36 5 C31.72455121 3.82425158 30.0694345 5.32808604 27.90625 9.03515625 Z M-283 45 C-284.94210433 52.47941368 -286.39363688 59.25847464 -286 67 C-282.18186553 66.72459296 -282.18186553 66.72459296 -279 65 C-278.40295416 58.12703048 -279.41068944 51.66942825 -281 45 C-281.66 45 -282.32 45 -283 45 Z M-287 74 C-287.33 85.55 -287.66 97.1 -288 109 C-285.0083846 105.02308197 -285.0083846 105.02308197 -283.8671875 100.62109375 C-283.6182373 99.3695752 -283.6182373 99.3695752 -283.36425781 98.09277344 C-283.20280273 97.2165332 -283.04134766 96.34029297 -282.875 95.4375 C-282.61734863 94.09800293 -282.61734863 94.09800293 -282.35449219 92.73144531 C-281.19140712 86.51402165 -280.29018233 80.3259747 -280 74 C-282.31 74 -284.62 74 -287 74 Z " fill="#1053A0" transform="translate(768,2)"/>
<path d="M0 0 C2.69196234 1.26185734 3.6095378 2.29562182 5 4.9375 C5.04995286 7.27029857 5.05437528 9.60480033 5 11.9375 C6.31355469 11.87949219 7.62710938 11.82148437 8.98046875 11.76171875 C10.71611023 11.71480952 12.45179023 11.66931061 14.1875 11.625 C15.05181641 11.58310547 15.91613281 11.54121094 16.80664062 11.49804688 C21.34748338 11.41105755 23.33633187 11.43018902 27.05078125 14.26953125 C29.61257314 17.77595181 30.13704889 20.10554544 29.9140625 24.32421875 C29.87023437 25.18080078 29.82640625 26.03738281 29.78125 26.91992188 C29.70390625 28.25893555 29.70390625 28.25893555 29.625 29.625 C29.58117187 30.49833984 29.53734375 31.37167969 29.4921875 32.27148438 C29.27387878 36.33142016 28.97988999 40.34183313 28.4296875 44.37109375 C27.9502787 48.35018675 28.00563259 50.44735703 30 53.9375 C33.20555953 55.60439095 35.40867834 56.33689054 38.9921875 55.4375 C47.06770355 51.91820896 51.57342222 45.5995716 54.8125 37.625 C57.88412371 28.97967228 57.88412371 28.97967228 59 19.9375 C57.36953047 17.06577495 57.36953047 17.06577495 55 14.9375 C53.03168466 10.53222281 52.75540596 7.60472766 54 2.9375 C54.66 1.9475 55.32 0.9575 56 -0.0625 C58.3125 0.125 58.3125 0.125 61 0.9375 C64.04772547 4.61578936 64.1220357 7.29372034 64 11.9375 C65.24136719 11.89109375 66.48273438 11.8446875 67.76171875 11.796875 C69.40362171 11.75934579 71.04555077 11.72294686 72.6875 11.6875 C73.50412109 11.65398437 74.32074219 11.62046875 75.16210938 11.5859375 C79.15738171 11.52123673 81.43139756 11.61000903 84.95703125 13.640625 C87.88609118 16.93371723 88.99322429 19.31584781 89.01171875 23.7421875 C88.90472656 24.75539063 88.79773438 25.76859375 88.6875 26.8125 C88.58179688 27.94429687 88.47609375 29.07609375 88.3671875 30.2421875 C88.24601563 31.46164063 88.12484375 32.68109375 88 33.9375 C87.74960089 36.60274285 87.52514865 39.26900674 87.3125 41.9375 C87.20550781 43.154375 87.09851563 44.37125 86.98828125 45.625 C87.00026619 49.01274251 87.34658952 50.99751287 89 53.9375 C92.20389257 55.53944628 94.4765609 56.33670562 98.02734375 55.40625 C103.10880696 53.14348711 107.40682742 49.92437034 110 44.9375 C110.68448969 41.68302448 111.07509321 38.45471694 111.4609375 35.15234375 C112.26765111 30.34129086 114.19329038 26.87137226 117 22.9375 C117.75796875 21.87208984 117.75796875 21.87208984 118.53125 20.78515625 C123.88572139 14.00366773 130.5788176 10.21403319 139.125 8.875 C144.99136048 8.56188186 149.18095835 10.44124938 153.53515625 14.296875 C158.7651676 19.9690739 159.47481536 26.63966278 159.3125 34.03515625 C158.31338252 43.31445989 154.0151655 51.59037778 146.9765625 57.69140625 C139.34458111 63.57852944 133.75181047 64.91024917 124 63.9375 C119.04482338 61.63688228 116.30250111 58.15736253 113 53.9375 C112.34 53.2775 111.68 52.6175 111 51.9375 C110.30777344 52.82501953 110.30777344 52.82501953 109.6015625 53.73046875 C104.42508429 60.00157773 98.94961428 65.34160749 90.50390625 66.1875 C86.38338004 65.97098631 84.54195173 65.45235415 81.5 62.5625 C76.61811366 54.0191989 78.80365214 42.90059822 80.55078125 33.64453125 C81.15713777 29.99057415 81.20913033 26.6321358 81 22.9375 C78.94077598 20.87827598 74.78291876 21.52322421 71.9375 21.375 C70.79958008 21.31022461 70.79958008 21.31022461 69.63867188 21.24414062 C67.75934562 21.13776367 65.87969756 21.03710066 64 20.9375 C63.9175 21.989375 63.835 23.04125 63.75 24.125 C61.77033658 39.26674992 54.90315602 52.27493806 43 61.9375 C38.77691222 64.66416145 34.82976502 66.29123238 29.75 66.0625 C24.87671147 64.60051344 23.76488363 63.12671762 21 58.9375 C18.4269106 51.21823181 20.09067394 42.6665081 21.5546875 34.8515625 C22.21865116 30.50667752 22.12905246 26.32528376 22 21.9375 C16.39 21.6075 10.78 21.2775 5 20.9375 C4.938125 22.29875 4.87625 23.66 4.8125 25.0625 C3.43350653 38.08019837 -2.23684711 49.87024727 -11.9609375 58.72265625 C-16.35879386 62.01624737 -19.98499698 64.04544659 -25.5 63.75 C-29.72570641 62.76903244 -32.65504292 61.44385193 -35.5625 58.1875 C-36.036875 57.775 -36.51125 57.3625 -37 56.9375 C-40.43630681 57.36703835 -42.29885635 58.85768471 -44.9375 61 C-50.63177048 64.90949914 -56.29998424 65.15650556 -63 63.9375 C-66.125 61.6875 -66.125 61.6875 -68 58.9375 C-68.5775 58.256875 -69.155 57.57625 -69.75 56.875 C-73.27779097 51.406924 -72.68341451 43.73703389 -71.57421875 37.5703125 C-68.39928759 26.62361734 -60.5486238 18.45916881 -51.375 12.125 C-44.0597825 8.46739125 -36.54238018 7.51165612 -28.6875 10.125 C-25.00633733 11.70797462 -22.48656748 13.75158542 -20 16.9375 C-20 18.2575 -20 19.5775 -20 20.9375 C-23 22.9375 -23 22.9375 -25.25 22.9375 C-28.12744708 21.89115561 -29.02630258 20.99880145 -31.125 18.875 C-34.20554721 16.08367447 -36.34921232 15.44327824 -40.5 15.3125 C-46.3839066 15.66714643 -50.17578384 17.12100028 -54.4296875 21.36328125 C-59.87840774 27.60190472 -62.12615424 32.69085964 -62.25 40.875 C-62.27578125 41.89464844 -62.3015625 42.91429687 -62.328125 43.96484375 C-61.9500264 47.39023704 -61.04635343 49.18831023 -59 51.9375 C-55.80580328 54.06696448 -54.81851004 54.23316029 -51.125 54.25 C-50.28195313 54.26675781 -49.43890625 54.28351563 -48.5703125 54.30078125 C-45.31052206 53.84005099 -43.51516809 53.07539288 -41 50.9375 C-40.50583439 48.07664949 -40.50583439 48.07664949 -40.875 44.875 C-41.17770742 37.12569015 -40.29682101 29.94145328 -35 23.9375 C-32.5 23.375 -32.5 23.375 -30 23.9375 C-27.42555646 26.7693879 -26.97781587 28.36071271 -27.125 32.1875 C-27.974259 35.82718141 -29.06472498 39.25999701 -30.30078125 42.78125 C-31.17152437 45.46644667 -31.64149038 48.14112496 -32 50.9375 C-28.15004137 54.27413082 -25.489229 54.45623749 -20.53125 54.28125 C-15.01024457 53.53148383 -12.02611482 51.08577135 -8.375 47 C-3.20858524 39.01087519 0.89543028 28.57558595 0 18.9375 C-1.70340573 15.92917569 -1.70340573 15.92917569 -4 13.9375 C-5.25131795 10.18354616 -5.45720519 6.86456604 -5 2.9375 C-3.49159969 0.4486395 -2.91117725 -0.09097429 0 0 Z M122.3125 23.125 C118.57528393 31.13332016 118.51217559 37.78636909 121.25 46.125 C123.14429604 50.80556644 126.00598278 53.66354455 130.25 56.375 C134.91202876 57.32859679 139.76678957 56.05410521 144 53.9375 C144 53.2775 144 52.6175 144 51.9375 C144.66 51.9375 145.32 51.9375 146 51.9375 C149.91583217 45.01486812 151.04094447 38.84447213 150 30.9375 C148.75107066 26.44936889 146.85588467 23.03410223 144 19.375 C136.72776179 15.89038586 127.4510858 16.46387026 122.3125 23.125 Z M-34 30.9375 C-35.20272819 33.34295638 -35.10071472 34.88746953 -35.0625 37.5625 C-35.05347656 38.37976563 -35.04445312 39.19703125 -35.03515625 40.0390625 C-35.02355469 40.66554688 -35.01195312 41.29203125 -35 41.9375 C-32.94074319 38.84861478 -32.7609626 38.22814073 -32.875 34.75 C-32.91625 33.491875 -32.9575 32.23375 -33 30.9375 C-33.33 30.9375 -33.66 30.9375 -34 30.9375 Z " fill="#1053A0" transform="translate(178,97.0625)"/>
<path d="M0 0 C3.67196846 0.68849409 4.60570313 1.75941331 7 4.5625 C11.49667903 13.7565837 10.46829891 25.04182773 10.375 35 C10.36968262 35.89766083 10.36436523 36.79532166 10.35888672 37.72018433 C10.26951804 50.55389945 10.01579971 63.03310136 7 75.5625 C6.70996094 76.76793457 6.41992188 77.97336914 6.12109375 79.21533203 C3.23974144 91.04704737 0.29654564 102.89247615 -3.49047852 114.47070312 C-5.46950096 122.59541049 -1.68500902 132.85971473 2.3046875 139.84765625 C4.65709851 143.24479408 4.65709851 143.24479408 8 145.5625 C11.85508727 146.08819372 13.59614371 145.81168792 16.9375 143.75 C20.63173126 140.39692466 22.9816716 136.05996531 25.484375 131.79296875 C26.23460937 130.68888672 26.23460937 130.68888672 27 129.5625 C27.66 129.5625 28.32 129.5625 29 129.5625 C28.52124991 137.06291806 25.1026316 142.40855259 21 148.5625 C20.34 148.5625 19.68 148.5625 19 148.5625 C19 149.2225 19 149.8825 19 150.5625 C15.36341101 153.76458745 12.18631115 155.5625 7.3125 155.5625 C-0.34050565 153.25215867 -5.35290081 148.12139304 -9.3359375 141.26171875 C-10.27509577 139.38673256 -11.14513845 137.47738987 -12 135.5625 C-12.4125 136.21476563 -12.825 136.86703125 -13.25 137.5390625 C-17.86800099 144.52791221 -23.44877587 151.52649426 -32 153.5625 C-38.85357156 154.31357634 -43.50268575 153.85040512 -49 149.5625 C-50.65949596 147.29081193 -51.76779835 145.12168805 -53 142.5625 C-53.33 141.9025 -53.66 141.2425 -54 140.5625 C-54.8611179 131.66428168 -52.34570079 124.31921373 -47.203125 117.0078125 C-39.4217097 107.76349112 -30.8691288 102.93745741 -19 101.5625 C-18.98541748 100.46188232 -18.97083496 99.36126465 -18.95581055 98.22729492 C-17.89360246 23.71850409 -17.89360246 23.71850409 -5.125 2.4375 C-3 0.5625 -3 0.5625 0 0 Z M-3 7.5625 C-3.48833406 9.20563661 -3.96508966 10.85221466 -4.4375 12.5 C-4.70433594 13.41652344 -4.97117187 14.33304688 -5.24609375 15.27734375 C-7.12198483 23.45156343 -7.26207171 31.83981757 -7.60546875 40.18945312 C-7.64285156 41.02541016 -7.68023437 41.86136719 -7.71875 42.72265625 C-7.74904297 43.46136963 -7.77933594 44.20008301 -7.81054688 44.96118164 C-7.96637205 47.1007657 -8.22308105 49.23276166 -8.50708008 51.35913086 C-9.03437328 55.4578383 -9.16136618 59.52692449 -9.16796875 63.65625 C-9.17129715 64.40604126 -9.17462555 65.15583252 -9.17805481 65.92834473 C-9.18308539 67.50821324 -9.18546434 69.08809224 -9.18530273 70.66796875 C-9.18746911 73.02883498 -9.2056106 75.38921735 -9.22460938 77.75 C-9.26061411 87.83765657 -8.50811299 97.58930177 -7 107.5625 C-1.4527263 99.24158944 -0.55962459 87.31183327 1 77.5625 C1.17281494 76.52883301 1.34562988 75.49516602 1.52368164 74.43017578 C3.03872489 64.46837734 3.34045099 54.68929447 3.31567383 44.62792969 C3.31249568 41.93383926 3.33613953 39.24083224 3.36132812 36.546875 C3.54272296 22.27101653 3.54272296 22.27101653 0 8.5625 C-0.99 8.2325 -1.98 7.9025 -3 7.5625 Z M-41 117.5625 C-44.46073719 123.25597086 -44.88291456 129.05836277 -44 135.5625 C-41.8807513 139.95797878 -39.61176678 142.82027699 -35 144.5625 C-30.77149868 144.97562944 -27.40642646 144.44399264 -23.78125 142.171875 C-19.37441038 138.52143323 -16.08245923 134.90446063 -14 129.5625 C-13.93184467 126.14905377 -14.44836974 122.92335841 -15 119.5625 C-15.15192605 117.89637767 -15.29811838 116.22971861 -15.4375 114.5625 C-15.69840307 111.15346822 -15.69840307 111.15346822 -18 108.5625 C-27.1951507 107.12049062 -34.86051562 110.8519008 -41 117.5625 Z " fill="#1053A0" transform="translate(397,5.4375)"/>
<path d="M0 0 C2.3509795 0.9403918 3.72618099 1.57521384 5.11663818 3.73228455 C6.18267857 6.46896187 6.25399925 8.59676032 6.25878906 11.53344727 C6.26509338 12.64724258 6.27139771 13.7610379 6.27789307 14.90858459 C6.2738446 16.11566574 6.26979614 17.32274689 6.265625 18.56640625 C6.26753845 19.82847397 6.2694519 21.09054169 6.27142334 22.39085388 C6.27278674 25.07849643 6.27008797 27.76577802 6.26074219 30.45336914 C6.24743101 34.46704635 6.26052459 38.48045993 6.2734375 42.49414062 C6.28139415 58.44444283 5.59611186 74.20593318 4.22914124 90.09521484 C3.80703734 95.44615542 3.5641921 100.80582052 3.34283447 106.1683197 C3.21753945 108.93526461 3.07966033 111.61465223 2.51806641 114.33129883 C1.93044649 117.35828906 1.68349515 120.31883493 1.46484375 123.39453125 C1.37783203 124.59658203 1.29082031 125.79863281 1.20117188 127.03710938 C1.0706543 128.90592773 1.0706543 128.90592773 0.9375 130.8125 C0.80118164 132.71032227 0.80118164 132.71032227 0.66210938 134.64648438 C0.43857988 137.76413257 0.21798043 140.88195973 0 144 C0.66 144.33 1.32 144.66 2 145 C2.11988281 143.99453125 2.23976563 142.9890625 2.36328125 141.953125 C4.00959482 130.51799755 8.91449824 117.52482333 16.5625 108.75 C19 107 19 107 21.5625 106.8125 C25.05072126 108.51188985 26.11186045 110.63622312 28 114 C28.69775391 117.61523438 28.69775391 117.61523438 28.9765625 121.59375 C29.0327475 122.30349976 29.0889325 123.01324951 29.14682007 123.74450684 C29.32270503 125.99546308 29.47529387 128.24716419 29.625 130.5 C29.7852973 132.75237026 29.95072878 135.00412952 30.12460327 137.25549316 C30.28076939 139.29779478 30.4213412 141.34127123 30.56103516 143.38476562 C31.34811613 149.88452326 31.34811613 149.88452326 35.1875 154.875 C38.60904888 156.24361955 41.3475454 156.21485027 45 156 C44.8125 157.875 44.8125 157.875 44 160 C40.08023086 162.65532748 35.87581481 162.18556466 31.37109375 161.58984375 C27.62396759 160.6576921 26.16979296 159.15606249 24 156 C20.73132326 149.87640307 20.62828455 143.25978508 20.3449707 136.4699707 C20.07516163 130.20748709 19.22076657 124.15124125 18 118 C16.515 117.505 16.515 117.505 15 117 C14.87923096 117.68843994 14.75846191 118.37687988 14.6340332 119.08618164 C13.49246087 124.33249115 11.61373056 129.36567331 9.87182617 134.43774414 C9.19174626 136.42509146 8.5244575 138.41644606 7.85742188 140.40820312 C7.42005428 141.68776806 6.98192765 142.96707384 6.54296875 144.24609375 C5.9555188 145.97363892 5.9555188 145.97363892 5.35620117 147.73608398 C3.9161107 151.20189309 2.2857543 154.02486066 0 157 C-0.99 157.33 -1.98 157.66 -3 158 C-6.23911137 155.84059242 -6.73240088 154.79971575 -7.64697266 151.13574219 C-8.33402927 146.9791922 -8.2445202 142.82648864 -8.1875 138.625 C-8.18685547 137.73039063 -8.18621094 136.83578125 -8.18554688 135.9140625 C-8.15949444 131.93093419 -8.0122727 128.09995738 -7.52587891 124.13842773 C-6.74079389 117.30268942 -6.6089935 110.43104499 -6.41796875 103.55859375 C-6.39618246 102.80732145 -6.37439617 102.05604916 -6.35194969 101.28201103 C-5.99494561 88.59109217 -5.98672647 75.91700788 -6.11328125 63.22265625 C-6.12856454 61.46853844 -6.14360949 59.71441853 -6.15841675 57.96029663 C-6.22084373 50.82617131 -6.2839939 43.69236115 -6.39770508 36.55883789 C-6.46777693 32.10294135 -6.50881757 27.64760602 -6.53032494 23.19122124 C-6.54385648 21.51695959 -6.56818162 19.84274699 -6.60381508 18.16880989 C-6.65190927 15.85929519 -6.66295577 13.55238062 -6.6652832 11.24243164 C-6.68162308 9.93568985 -6.69796295 8.62894806 -6.71479797 7.28260803 C-6 4 -6 4 -2.9584198 1.54734802 C-1.98214127 1.03672318 -1.00586273 0.52609833 0 0 Z " fill="#1053A1" transform="translate(64,1)"/>
<path d="M0 0 C2.35620437 3.53430656 2.48991613 4.83571287 2 9 C-0.77582572 14.67233951 -5.61829836 18.79750853 -11 22 C-12.32 22 -13.64 22 -15 22 C-13.77483247 19.10414946 -12.4829377 17.43483888 -10.3125 15.0625 C-7.70920348 12.27355819 -7.70920348 12.27355819 -8.0625 9.25 C-8.8940473 6.8521195 -8.8940473 6.8521195 -11 5 C-14.86339479 4.1816842 -18.50515338 4.22256543 -22.04296875 6.0625 C-26.52638565 9.58040494 -29.01751332 13.38831935 -30 19 C-30.60339524 26.4277104 -30.91806798 32.45082068 -27 39 C-22.75686546 42.7288152 -17.47008457 43.15062552 -12 43 C-8.53661041 42.30230268 -5.30307953 41.24158309 -2 40 C-0.989375 39.649375 0.02125 39.29875 1.0625 38.9375 C3.17503935 38.15853641 3.17503935 38.15853641 4 36 C4 40.88558331 2.9149397 41.88415845 -0.23046875 45.32421875 C-4.90195144 49.74820567 -10.63669821 52.20616235 -17 53 C-20.5625 52.75 -20.5625 52.75 -24 52 C-25.155 51.773125 -26.31 51.54625 -27.5 51.3125 C-32.94043867 49.2723355 -36.43179575 46.67207987 -39.3984375 41.6171875 C-42.96966827 33.39616634 -42.01373897 26.07235721 -39.2421875 17.71484375 C-35.41013894 9.03231931 -28.82506277 2.78601605 -20.296875 -1.125 C-12.98037318 -3.91223879 -6.90287036 -3.65446078 0 0 Z " fill="#1053A1" transform="translate(42,108)"/>
</svg>
